<?xml version="1.0" standalone="no"?>
<!DOCTYPE svg PUBLIC "-//W3C//DTD SVG 20010904//EN"
 "http://www.w3.org/TR/2001/REC-SVG-20010904/DTD/svg10.dtd">
<svg version="1.0" xmlns="http://www.w3.org/2000/svg"
 width="2560.000000pt" height="1707.000000pt" viewBox="0 0 2560.000000 1707.000000"
 preserveAspectRatio="xMidYMid meet">

<g transform="translate(0.000000,1707.000000) scale(0.100000,-0.100000)"
fill="#000000" stroke="none">
<path d="M6400 8535 l0 -8535 9600 0 9600 0 0 8535 0 8535 -9600 0 -9600 0 0
-8535z m8000 4847 c-175 -136 -445 -392 -600 -567 -510 -578 -862 -1248 -1045
-1989 -90 -366 -125 -638 -132 -1038 -7 -374 11 -602 73 -948 127 -702 436
-1401 870 -1971 296 -388 682 -759 1072 -1029 683 -474 1462 -750 2317 -821
184 -15 715 -6 885 15 1059 133 1981 569 2723 1286 l99 95 -37 -80 c-114 -251
-342 -626 -534 -880 -266 -352 -606 -697 -958 -972 -131 -102 -437 -307 -588
-394 -148 -84 -502 -256 -650 -314 -382 -151 -835 -268 -1235 -319 -347 -45
-800 -53 -1120 -22 -1197 116 -2265 608 -3109 1431 -1000 976 -1551 2280
-1551 3670 0 1733 868 3336 2322 4289 334 218 712 406 1093 542 66 24 125 43
130 43 6 1 -6 -12 -25 -27z m3907 -1509 l384 -432 42 18 c23 10 275 121 560
245 286 125 521 226 523 224 2 -3 -136 -242 -306 -533 l-309 -528 68 -76 c246
-274 750 -845 748 -847 -1 -2 -268 56 -592 127 -325 71 -596 128 -604 127 -7
-2 -147 -231 -310 -509 -163 -279 -304 -517 -313 -530 l-17 -24 -1 30 c-2 71
-117 1195 -122 1201 -4 3 -271 64 -595 135 -323 71 -592 130 -598 132 -5 2 6
11 25 19 109 47 1095 480 1096 482 1 0 -25 267 -57 591 -32 325 -59 601 -59
615 l1 25 26 -30 c14 -16 199 -224 410 -462z"/>
</g>
</svg>
