<svg id="Layer_1" data-name="Layer 1" xmlns="http://www.w3.org/2000/svg" viewBox="0 0 500 500"><defs><style>.cls-1{fill:#bbbdbf;}.cls-2{fill:#e6e7e8;}</style></defs><path class="cls-1" d="M327,258.06a2.55,2.55,0,0,0-3.61,0l-14,14-14-14a2.55,2.55,0,0,0-3.6,3.61l14,14-14,14a2.55,2.55,0,1,0,3.6,3.6l14-14,14,14a2.55,2.55,0,1,0,3.61-3.6l-14-14,14-14A2.57,2.57,0,0,0,327,258.06Z"/><path class="cls-1" d="M322.61,237.73l6.55-25.08A8.48,8.48,0,0,0,321,202H283.52V181.18a9.08,9.08,0,0,0-9.07-9.07H214.84a9.08,9.08,0,0,0-9.07,9.07V202H168.33a8.48,8.48,0,0,0-8.2,10.62l17.65,67.63a8.47,8.47,0,0,0,8.2,6.34h83.66a40.49,40.49,0,1,0,53-48.89Zm-28.22-30.6H321a3.37,3.37,0,0,1,3.26,4.23l-3.66,14H292.69Zm-2.17,23.38h27l-1.5,5.77a40.21,40.21,0,0,0-26.3,2.8Zm-3-23.38-1.7,18.28H260.45V207.13Zm-2.18,23.38L286,242.16a40.74,40.74,0,0,0-11.35,11.57H260.45V230.51Zm-76.22-49.33a4,4,0,0,1,4-4h59.61a4,4,0,0,1,4,4V202H210.87Zm-45.81,30.18a3.38,3.38,0,0,1,3.27-4.23h20.73l2.61,18.28H168.73Zm5,19.15H192.4l3.32,23.22h-19.6Zm15.92,51a3.39,3.39,0,0,1-3.27-2.52l-5.26-20.17h19l3.24,22.69Zm38.89,0h-20l-3.25-22.69h23.27Zm0-27.79h-24l-3.32-23.22h27.32Zm0-28.32H196.82l-2.61-18.28h30.66Zm30.48,56.11H230V258.83h25.38Zm0-27.79H230V230.51h25.38Zm0-28.32H230V207.13h25.38Zm12.78,50.32a39.56,39.56,0,0,0,.43,5.79h-8.11V258.83h11.39A40.32,40.32,0,0,0,268.13,275.73Zm40.5,35.39A35.45,35.45,0,0,1,275,286.62a34.5,34.5,0,0,1-1.24-5.1,35.71,35.71,0,0,1-.48-5.79,35.19,35.19,0,0,1,7.69-22,35.55,35.55,0,0,1,9.93-8.59,35.11,35.11,0,0,1,17.77-4.8,35.79,35.79,0,0,1,7.8.87,35,35,0,0,1,4.89,1.49,35.39,35.39,0,0,1-12.69,68.42Z"/><path class="cls-1" d="M422,100.28H78a13.46,13.46,0,0,0-13.44,13.45V334.36A13.46,13.46,0,0,0,78,347.81H422a13.46,13.46,0,0,0,13.44-13.45V113.73A13.46,13.46,0,0,0,422,100.28Zm-344,9H422a4.49,4.49,0,0,1,4.48,4.48V137H73.53V113.73A4.49,4.49,0,0,1,78,109.25Zm344,229.6H78a4.49,4.49,0,0,1-4.48-4.49V146H426.47V334.36A4.49,4.49,0,0,1,422,338.85Z"/><circle class="cls-1" cx="90.67" cy="123.82" r="6.6"/><circle class="cls-1" cx="114.25" cy="123.82" r="6.6"/><path class="cls-1" d="M137.82,130.42a6.6,6.6,0,1,0-6.6-6.6A6.59,6.59,0,0,0,137.82,130.42Z"/><path class="cls-2" d="M169.11,393.76v3.92H150.22V372.49h18.39v3.92H154.89V383h12.17v3.85H154.89v6.95Z"/><path class="cls-2" d="M206.05,386.67v11h-4.5V387.25c0-3.42-1.59-5.08-4.32-5.08-2.95,0-5,1.94-5,5.76v9.75h-4.5V387.25c0-3.42-1.58-5.08-4.31-5.08-3,0-5,1.94-5,5.76v9.75h-4.5V378.46h4.29v2.45a8,8,0,0,1,6.3-2.66,7.22,7.22,0,0,1,6.48,3.2,8.94,8.94,0,0,1,7.19-3.2C202.81,378.25,206.05,380.88,206.05,386.67Z"/><path class="cls-2" d="M232.22,388.07c0,6-4.14,9.87-9.75,9.87a7.89,7.89,0,0,1-6.16-2.6v9.33h-4.5V378.46h4.28V381a8,8,0,0,1,6.38-2.73C228.08,378.25,232.22,382.13,232.22,388.07Zm-4.57,0c0-3.67-2.45-6-5.69-6s-5.72,2.34-5.72,6,2.48,6,5.72,6S227.65,391.75,227.65,388.07Z"/><path class="cls-2" d="M248.06,396.64a7,7,0,0,1-4.32,1.3c-4.21,0-6.62-2.23-6.62-6.48v-9.25H234v-3.6h3.17v-4.39h4.5v4.39h5.14v3.6h-5.14v9.14c0,1.87.93,2.88,2.66,2.88a4,4,0,0,0,2.52-.79Z"/><path class="cls-2" d="M269.41,378.46l-9,20.77c-1.77,4.36-4.21,5.69-7.42,5.69a8,8,0,0,1-5.14-1.76l1.8-3.32a4.85,4.85,0,0,0,3.31,1.34c1.58,0,2.52-.76,3.38-2.67l.33-.75-8.39-19.3H253l6,14.22,6.08-14.22Z"/><path class="cls-2" d="M280.57,388.07c0-5.76,4.32-9.82,10.4-9.82,3.75,0,6.73,1.55,8.21,4.46l-3.46,2a5.43,5.43,0,0,0-4.78-2.67,6,6,0,0,0,0,12,5.43,5.43,0,0,0,4.78-2.67l3.46,2c-1.48,2.88-4.46,4.5-8.21,4.5C284.89,397.94,280.57,393.83,280.57,388.07Z"/><path class="cls-2" d="M319.16,386.42v11.26h-4.25v-2.34c-1.08,1.66-3.17,2.6-6.05,2.6-4.39,0-7.16-2.42-7.16-5.76s2.16-5.73,8-5.73h5v-.28c0-2.63-1.58-4.18-4.79-4.18A9.5,9.5,0,0,0,304,383.9l-1.76-3.28a13.53,13.53,0,0,1,8.13-2.37C316,378.25,319.16,380.88,319.16,386.42Zm-4.5,5.25v-2.23H310c-3.06,0-3.89,1.15-3.89,2.56,0,1.62,1.37,2.66,3.67,2.66A4.9,4.9,0,0,0,314.66,391.67Z"/><path class="cls-2" d="M336,378.25v4.28a5.85,5.85,0,0,0-1-.11c-3.42,0-5.58,2-5.58,5.94v9.32h-4.5V378.46h4.28v2.81C330.5,379.26,332.84,378.25,336,378.25Z"/><path class="cls-2" d="M352.14,396.64a7,7,0,0,1-4.32,1.3c-4.22,0-6.63-2.23-6.63-6.48v-9.25H338v-3.6h3.17v-4.39h4.5v4.39h5.15v3.6h-5.15v9.14c0,1.87.94,2.88,2.67,2.88a4.07,4.07,0,0,0,2.52-.79Z"/></svg>